P2
32 30
255
188 109 50 6 73 201 72 163 158 200
206 1 103 59 36 173 137 26 21 252
33 198 130 219 172 75 121 126 92 125
190 206 64 17 27 147 246 61 108 1
197 98 2 204 126 155 244 153 121 205
211 189 25 65 83 210 236 80 130 200
81 231 69 214 81 118 66 220 109 220
207 248 202 189 158 246 178 127 245 91
148 163 135 146 69 79 234 27 91 33
10 90 48 199 253 179 234 68 83 180
158 215 77 31 242 55 160 39 84 103
94 42 86 22 30 228 172 208 239 3
104 22 0 238 17 198 202 167 149 237
121 150 46 187 28 111 142 184 224 204
85 217 43 63 175 212 56 235 132 56
105 149 191 66 226 73 229 58 45 133
135 143 169 59 186 173 219 87 127 14
156 226 42 214 64 227 87 104 72 155
48 106 190 115 214 132 97 13 37 91
89 97 43 141 153 229 62 116 152 142
160 184 60 13 176 162 181 210 177 214
234 35 125 0 195 165 68 201 120 169
188 76 18 188 229 24 1 77 125 113
45 45 1 151 195 147 96 54 199 0
154 32 53 225 232 18 107 7 198 103
207 217 69 69 83 92 173 234 26 136
221 137 97 194 201 27 58 119 122 27
251 106 219 19 36 9 89 15 135 92
27 31 119 124 60 100 225 113 8 94
159 253 229 133 203 67 61 14 211 26
229 154 92 50 218 77 254 184 45 195
46 108 180 170 237 94 242 240 63 24
121 27 146 37 127 160 252 221 235 25
143 203 172 117 120 192 27 118 112 53
244 140 126 65 187 33 36 24 165 173
252 157 130 5 59 245 45 74 112 232
109 88 67 221 200 191 236 157 46 254
153 173 9 1 81 46 97 96 9 17
82 246 67 191 74 145 237 100 100 27
134 196 66 69 31 85 192 15 111 112
83 96 73 171 254 53 105 54 230 28
5 199 71 245 124 18 104 249 156 197
141 117 139 72 176 247 124 193 44 71
211 251 252 189 101 134 63 173 188 132
137 85 180 156 119 136 19 119 214 155
43 37 1 20 127 148 82 94 220 159
7 75 39 199 103 110 4 71 46 220
108 239 90 117 32 0 206 139 195 109
86 39 135 120 246 136 48 17 152 222
18 208 38 149 80 141 94 135 223 149
129 59 117 2 162 0 85 244 219 31
85 162 99 102 240 112 73 237 50 190
136 149 226 146 203 204 36 154 53 100
71 151 87 108 65 114 92 140 209 233
104 85 205 115 133 50 28 173 110 202
49 83 147 31 33 202 89 219 90 191
138 107 245 210 59 106 171 253 166 92
6 247 153 160 229 229 54 249 202 222
190 99 128 240 113 135 219 166 156 60
206 215 58 37 234 63 91 0 237 136
197 196 76 169 107 90 242 234 114 96
75 42 141 114 178 23 139 142 254 187
40 73 246 81 252 114 203 129 176 230
169 15 75 254 42 21 103 149 146 38
248 79 167 69 22 194 56 52 155 207
41 254 75 207 251 156 174 77 191 116
186 138 132 233 239 177 211 140 255 136
210 79 207 154 115 64 239 10 13 65
172 62 49 90 78 114 68 134 99 238
38 42 75 72 162 214 180 171 97 225
84 147 12 28 143 87 178 25 66 45
245 104 167 137 37 181 216 33 197 201
216 236 147 130 131 36 234 228 158 49
80 93 75 85 180 56 82 242 159 0
20 89 231 110 85 75 236 187 241 18
210 19 179 72 250 112 81 242 238 246
83 102 155 244 183 145 71 199 93 131
147 231 75 250 191 152 227 220 22 195
84 168 43 235 240 241 182 213 139 105
245 236 93 247 192 29 228 210 115 120
90 157 57 11 181 239 195 186 40 104
193 254 250 100 214 182 94 41 6 186
37 192 232 221 142 98 21 78 131 42
39 85 57 11 146 11 229 247 121 35
12 8 218 6 150 172 88 137 80 5
102 248 107 241 187 241 11 221 165 41
212 30 69 204 65 76 212 163 43 32
126 122 69 4 69 111 143 138 242 115
32 76 105 53 119 53 0 33 228 246
19 136 178 6 218 174 216 220 191 183
34 215 78 53 201 100 136 60 9 243
142 247 204 157 20 253 15 203 226 120
242 61 47 105 103 10 160 6 162 224
170 68 32 240 212 248 149 207 193 30
134 55 169 137 28 112 10 239 191 242
205 47 90 210 230 202 79 219 9 23

