P2
32 30
255
28 172 226 210 135 48 200 91 64 45
37 195 202 230 19 191 128 246 168 235
239 228 175 229 198 160 55 29 63 191
190 51 6 141 156 152 138 40 231 222
4 26 139 150 186 124 178 180 130 142
34 242 129 77 212 138 106 126 182 241
82 133 36 179 246 200 110 131 83 23
154 128 220 197 233 225 112 240 156 166
111 66 165 106 66 148 231 134 177 26
122 42 45 181 186 15 27 249 233 216
161 164 150 59 203 91 92 62 200 191
201 252 78 104 115 179 19 37 250 135
239 115 181 162 124 173 179 132 247 68
176 208 18 126 227 27 4 25 75 127
207 127 92 37 24 154 201 43 91 81
233 115 176 193 143 200 234 74 246 47
223 80 113 145 194 81 110 142 212 249
196 111 71 46 83 104 215 229 11 141
106 16 146 12 72 21 241 166 129 127
76 219 13 63 136 7 96 232 133 101
121 32 14 102 144 64 166 21 168 51
123 172 16 177 161 1 30 110 93 97
168 134 120 50 203 130 148 83 205 95
80 36 120 82 40 25 162 183 87 234
236 127 64 7 26 222 82 163 117 109
236 245 39 135 87 120 128 154 235 216
3 69 223 145 9 228 17 187 31 96
61 174 108 40 124 191 145 232 43 222
65 124 43 88 96 70 117 187 231 190
21 146 99 176 12 12 1 208 166 114
237 9 44 14 34 207 165 69 188 5
54 156 130 62 92 19 124 154 2 187
54 246 57 20 75 240 118 223 64 123
140 165 187 140 223 105 244 110 51 83
163 122 223 15 232 52 240 127 14 54
226 145 95 64 197 172 204 238 28 185
226 48 90 134 166 212 172 39 30 209
237 238 83 153 107 201 24 239 89 87
125 203 70 157 56 89 7 238 207 165
202 158 189 101 77 130 124 102 93 203
174 103 131 146 158 193 77 87 207 60
99 46 65 246 106 222 91 182 145 170
119 99 158 156 148 222 229 156 24 21
31 178 197 112 194 144 201 110 10 212
194 61 102 178 229 0 27 115 131 221
74 205 23 193 49 244 219 22 24 147
220 177 153 239 130 61 203 40 215 181
136 231 132 132 58 105 161 130 193 204
218 238 73 189 130 175 47 135 64 55
42 181 129 152 65 20 196 176 125 30
150 68 115 93 86 171 61 232 153 63
105 190 120 12 239 205 152 22 201 199
86 57 126 244 150 145 49 247 242 197
243 99 226 233 209 168 83 233 72 222
147 21 158 63 185 165 3 220 2 222
118 3 74 41 115 116 10 203 9 15
102 213 42 3 5 116 173 239 201 111
180 153 221 163 125 60 84 183 230 203
205 165 142 220 168 30 54 72 47 69
207 142 123 158 233 199 106 76 106 30
171 68 190 148 203 40 23 102 55 99
101 23 187 38 200 58 84 16 78 105
10 230 223 158 143 185 164 10 90 67
209 184 137 134 40 236 147 93 46 171
156 229 194 38 157 35 231 45 6 176
82 179 31 3 108 94 133 147 161 250
78 150 75 75 93 253 121 8 181 60
22 246 231 82 103 32 125 87 186 205
208 62 192 8 166 143 174 75 235 7
211 33 255 35 20 162 242 2 176 174
169 10 44 241 188 145 35 11 115 227
191 131 81 175 108 15 74 88 244 123
50 135 63 80 187 172 68 59 236 31
219 234 34 76 218 54 13 39 223 115
217 210 217 137 113 172 132 83 86 222
204 155 226 189 169 138 206 151 65 98
203 152 30 165 228 94 223 61 53 197
43 157 26 232 162 83 250 147 88 227
42 206 142 131 166 164 101 48 186 204
84 216 45 136 177 196 21 209 233 167
102 114 198 24 27 129 215 4 28 200
250 112 133 49 100 42 224 88 229 24
223 215 240 217 10 11 54 129 12 204
170 84 213 12 185 87 30 217 10 17
139 105 50 63 233 49 195 199 10 103
54 106 67 248 93 80 133 79 227 146
95 195 218 220 122 111 181 114 203 73
125 83 32 192 6 178 107 188 43 166
8 55 167 91 7 128 112 38 178 181
236 221 35 185 59 193 139 186 130 8
107 47 42 35 38 131 11 240 77 244
43 157 32 149 44 204 101 77 122 137
137 10 63 170 2 203 243 60 95 181
31 162 167 5 204 79 213 117 217 55
0 15 132 78 36 97 147 187 79 157
68 190 124 131 176 220 116 138 117 152

