P2
32 30
255
67 176 167 37 57 239 133 238 226 248
121 56 113 200 111 93 247 81 50 57
182 194 92 181 162 139 140 117 203 213
5 157 217 252 83 51 123 57 251 54
196 103 65 87 177 20 150 96 67 61
2 156 141 158 80 94 48 141 71 4
17 185 107 208 188 76 136 229 183 26
254 253 77 27 163 155 227 116 124 204
183 163 35 81 178 68 172 26 123 159
24 154 220 117 254 207 199 40 134 229
26 62 4 244 73 197 131 173 208 36
92 250 186 224 27 234 6 241 181 0
162 74 220 235 200 65 179 32 52 211
23 125 5 149 115 73 6 13 186 213
242 17 61 152 137 183 26 6 221 70
127 36 117 184 237 148 77 183 209 193
253 220 75 110 178 171 115 47 155 9
29 216 104 176 12 91 161 216 85 3
22 85 152 236 120 209 162 22 198 77
24 22 151 239 97 188 39 184 128 97
47 54 172 195 29 80 88 146 201 132
146 62 85 173 249 16 76 200 153 8
167 17 158 117 185 157 161 243 246 249
94 123 1 110 194 0 229 164 135 72
248 30 61 46 185 124 22 70 39 201
190 98 239 172 228 62 248 32 96 84
49 231 63 44 42 92 114 50 54 101
94 240 0 100 233 247 208 212 236 243
163 184 233 80 55 254 47 137 49 69
154 156 11 12 86 123 247 61 179 50
141 78 48 5 161 136 197 36 149 30
71 225 6 172 163 238 185 158 147 59
189 127 165 224 155 60 166 241 223 125
128 185 0 149 128 157 230 197 116 100
164 16 70 75 238 211 121 45 201 236
177 78 16 184 230 244 98 219 135 47
146 150 16 215 165 50 184 252 162 14
0 43 77 40 15 138 110 25 192 187
136 117 166 87 55 148 227 149 212 228
137 233 65 46 132 26 66 207 175 235
18 195 42 149 209 149 129 124 149 110
40 133 166 35 64 44 149 108 128 145
8 168 233 247 101 206 72 200 169 54
101 26 212 199 108 41 137 254 182 21
138 28 206 8 123 59 179 154 53 116
57 0 245 10 12 114 18 14 138 68
29 48 232 81 87 108 103 121 61 115
105 29 164 242 37 24 1 218 231 209
238 28 209 113 193 96 49 168 150 84
79 118 104 200 77 38 93 39 19 231
246 94 55 240 129 53 92 153 173 249
76 182 43 5 210 8 131 113 66 127
164 19 248 183 2 92 69 251 227 76
0 196 58 67 121 147 147 107 6 128
132 35 31 153 233 56 21 87 38 239
147 237 31 64 200 118 99 87 116 95
244 123 199 108 97 154 147 201 48 3
246 40 245 242 25 197 66 43 249 23
224 67 152 181 156 13 213 243 171 236
44 27 237 157 14 21 46 91 10 34
213 130 64 35 240 212 61 46 159 178
88 101 88 73 223 39 40 233 0 3
127 189 253 237 35 94 117 197 5 7
122 139 88 33 188 41 194 216 156 116
40 184 174 181 146 134 146 179 12 5
98 42 230 207 152 251 250 8 83 182
30 37 96 89 14 213 65 107 63 137
241 208 33 107 134 177 241 17 83 91
214 17 219 244 179 114 177 35 42 27
128 184 152 88 232 172 213 68 226 54
129 105 37 143 166 2 109 56 0 1
169 23 103 27 67 241 94 64 117 37
126 129 54 42 45 111 180 20 241 3
165 160 19 123 73 54 23 176 220 198
123 178 97 50 105 122 225 29 54 73
159 1 192 166 24 110 36 83 17 145
185 18 40 34 82 228 250 195 104 234
252 234 22 127 97 31 178 119 172 105
4 214 234 88 149 205 168 182 217 114
69 182 143 147 101 26 126 149 72 206
232 111 245 223 254 23 81 184 159 169
226 118 137 209 151 143 40 148 49 240
90 190 248 54 121 0 112 172 54 73
74 46 210 14 255 22 70 33 71 4
77 131 231 185 160 70 248 225 207 36
9 54 38 237 230 161 168 61 232 214
188 242 69 240 100 63 66 100 61 154
250 213 77 209 161 69 9 157 80 90
68 178 198 180 6 79 17 166 71 178
126 45 145 180 250 33 236 222 150 102
152 134 164 13 225 128 206 216 199 104
205 69 144 31 174 20 158 63 83 86
12 91 0 23 140 21 123 152 160 252
67 81 248 149 151 222 177 28 115 128
101 88 174 163 144 208 238 175 108 125
10 244 58 38 120 173 148 70 153 177

