P2
32 30
255
98 49 138 182 84 33 168 239 133 79
59 195 61 139 188 194 113 13 175 184
220 70 170 148 76 212 165 237 191 149
216 170 204 84 220 104 50 195 38 92
35 165 137 176 113 122 146 37 13 130
157 43 190 80 40 105 219 170 24 91
184 122 63 193 222 106 200 68 207 171
15 18 134 55 28 58 211 166 76 15
31 53 228 221 238 41 172 79 80 33
181 29 139 238 73 154 100 100 31 237
52 88 146 94 151 56 180 143 171 120
83 209 139 13 37 92 108 60 46 189
21 112 172 210 205 198 62 134 233 104
225 27 159 138 117 70 181 69 105 157
127 64 168 218 52 63 18 19 51 19
132 195 138 194 200 239 240 242 47 222
48 185 27 63 48 34 237 109 212 23
66 240 107 228 135 228 143 100 120 140
139 45 44 195 151 195 181 218 49 64
48 95 150 211 196 181 141 178 177 185
38 221 175 204 95 188 172 168 89 121
95 174 56 167 78 107 37 240 138 201
45 101 162 55 244 59 216 235 116 207
197 14 192 224 20 52 182 232 186 115
74 239 139 95 92 119 240 138 100 223
131 158 191 104 91 219 237 84 154 95
144 52 129 88 247 180 90 236 191 137
49 93 34 202 191 119 113 51 218 160
223 33 121 99 212 142 132 166 163 119
230 74 218 141 41 102 56 210 151 112
240 146 114 126 91 176 105 45 97 147
169 51 234 64 240 81 170 168 152 237
180 127 243 70 18 50 88 204 228 178
124 203 36 83 115 133 208 115 214 215
61 61 85 220 124 106 122 97 167 59
182 34 155 32 206 169 210 120 34 131
205 80 125 237 76 95 120 214 129 50
162 13 185 90 66 240 207 30 147 100
145 145 218 39 225 37 154 112 42 194
184 86 78 140 74 35 207 43 87 255
202 64 77 167 226 38 129 218 78 185
173 33 203 22 106 61 145 93 190 68
108 213 23 40 87 235 37 240 252 107
245 88 104 31 192 121 153 156 204 90
172 123 180 226 104 184 64 238 92 75
42 55 116 51 128 83 63 174 98 228
60 168 39 164 185 147 186 126 156 204
149 58 99 20 36 68 224 63 30 215
140 122 26 32 34 82 168 75 175 218
75 103 102 105 209 198 242 124 44 217
170 92 177 89 22 79 102 134 200 42
175 210 66 168 206 183 184 61 17 183
169 196 219 100 62 194 205 112 157 190
225 43 37 53 140 134 20 229 160 133
126 104 93 232 182 114 36 236 159 18
223 83 162 94 218 44 226 75 108 164
58 58 81 68 131 102 71 25 114 72
19 218 83 63 45 121 237 52 186 106
178 185 101 182 218 83 96 54 116 54
114 242 198 192 186 202 234 87 85 15
30 31 62 136 242 244 83 146 179 100
229 148 223 172 26 168 28 25 126 203
182 48 246 187 84 191 162 154 59 0
195 67 62 67 118 32 194 239 121 233
126 193 212 14 165 202 51 166 142 139
150 135 186 40 50 215 205 36 193 120
61 215 57 192 170 171 44 127 70 90
208 152 246 148 19 68 155 61 169 197
48 122 214 61 123 222 130 96 196 163
64 72 200 121 193 179 41 99 169 75
211 38 237 142 187 83 213 190 139 132
87 233 43 60 20 94 168 227 210 177
22 206 177 20 118 174 39 85 235 87
210 163 181 220 24 206 140 84 211 18
52 146 215 223 184 66 48 184 91 193
149 133 125 96 97 70 123 9 159 231
147 209 45 176 71 191 133 118 129 116
98 118 29 25 42 164 41 200 39 49
23 96 170 179 125 109 180 96 189 85
173 136 125 221 70 28 138 42 235 248
205 200 150 138 36 123 40 84 111 58
243 167 212 36 84 217 49 75 154 221
86 100 172 72 127 128 128 66 235 96
242 32 121 226 64 228 122 133 104 96
197 43 26 44 166 29 202 177 225 74
87 163 136 228 55 146 129 30 131 189
204 168 208 210 183 85 230 169 210 71
93 62 148 58 152 162 142 32 178 103
166 80 62 250 199 75 174 144 69 213
48 87 206 215 153 50 129 212 178 92
78 197 208 44 209 42 232 238 33 221
205 222 38 227 142 206 236 209 214 32
168 157 104 156 140 59 90 229 149 25
96 75 237 161 63 97 161 47 80 169
140 38 170 58 114 180 129 169 232 239
177 199 26 68 79 83 38 137 55 43

