P2
32 30
255
29 94 177 216 228 234 145 91 79 236
23 241 237 55 22 171 19 93 140 198
147 46 125 51 217 132 52 68 180 56
99 93 200 134 223 108 246 214 78 251
36 154 131 20 129 210 187 16 188 50
138 208 176 161 150 24 231 229 23 104
158 73 118 102 151 122 85 149 213 172
144 79 89 165 95 29 179 130 77 124
67 73 113 19 192 38 162 187 126 115
183 155 212 218 120 85 11 215 53 49
157 167 31 78 125 40 187 107 95 100
170 237 217 197 234 21 20 201 169 222
131 9 13 216 192 193 109 234 115 210
70 210 220 215 86 74 167 64 227 104
200 46 60 85 112 170 48 245 192 205
236 81 211 74 186 140 101 95 159 65
117 42 238 235 140 114 213 60 200 127
86 145 160 18 214 228 118 70 170 76
66 193 99 80 49 133 118 98 183 74
202 54 198 161 98 57 90 139 56 129
14 122 105 197 58 12 217 13 96 153
13 115 208 145 140 48 208 15 198 88
176 93 94 131 126 35 163 94 33 224
225 201 164 143 186 145 186 172 192 110
94 39 34 136 113 94 98 41 11 147
135 86 91 138 121 42 108 77 13 51
184 188 87 212 42 106 105 95 179 73
39 189 78 75 98 121 184 12 134 184
12 29 74 81 44 85 121 45 231 169
205 239 25 20 243 132 208 165 212 40
63 29 81 103 132 121 147 30 112 202
205 234 122 201 130 122 60 200 59 185
31 20 80 196 32 219 190 100 151 245
49 11 82 100 82 55 147 47 108 199
137 60 104 14 53 135 198 41 224 237
222 110 239 62 20 228 223 156 136 165
97 85 163 177 76 223 121 55 64 204
63 217 197 21 234 64 100 141 91 56
92 125 172 205 13 88 126 213 22 119
189 94 44 211 236 60 72 245 166 147
203 119 130 111 168 44 119 241 27 176
211 90 186 110 18 127 136 127 72 224
199 163 47 182 58 138 132 104 25 74
55 176 51 123 1 160 150 191 132 80
242 133 71 152 43 146 144 141 154 160
162 105 185 177 186 26 145 97 205 159
29 191 55 189 219 171 29 103 25 49
188 102 194 237 103 115 50 155 95 96
115 73 143 93 224 98 45 57 113 83
209 49 94 79 220 203 152 245 74 86
192 94 209 58 181 229 87 87 19 17
208 207 179 17 164 110 151 168 106 199
103 159 109 7 27 91 200 158 40 33
72 229 148 109 52 189 96 87 24 43
211 215 86 211 129 181 164 201 138 101
33 139 168 119 78 177 233 205 124 0
77 211 85 46 169 199 172 123 113 198
105 132 40 101 17 222 42 38 185 203
211 46 192 36 113 157 186 221 58 241
112 214 18 24 142 50 133 40 218 48
209 215 124 3 106 122 187 105 178 131
64 249 206 163 94 201 230 242 98 10
16 115 46 52 231 109 71 62 167 214
208 116 194 202 55 38 215 30 218 64
168 125 114 42 184 67 108 236 88 140
192 130 216 130 25 160 14 110 155 67
86 144 138 240 76 115 238 173 92 211
211 37 15 23 180 198 219 211 51 167
55 229 43 104 160 199 38 158 67 209
203 156 252 120 208 241 61 109 247 63
65 66 215 99 117 149 61 134 110 186
154 108 29 187 43 175 132 61 57 225
43 214 232 199 255 86 115 112 209 102
134 197 6 103 163 66 240 155 179 130
105 147 250 45 62 23 109 115 89 74
75 147 151 101 52 187 244 243 179 163
113 210 196 74 190 37 0 203 126 174
228 207 83 191 46 136 223 191 44 72
176 192 225 109 160 93 176 175 128 200
144 180 8 164 153 138 46 137 1 10
179 191 184 161 245 184 170 48 33 74
186 35 82 32 122 103 72 160 143 146
191 91 20 112 185 83 109 17 125 99
143 74 154 191 201 91 58 47 77 50
13 32 34 42 212 169 149 15 62 188
16 71 101 194 121 26 27 27 197 29
182 186 216 5 37 48 150 153 118 27
217 177 130 104 127 16 135 93 62 55
166 123 96 184 175 129 66 207 171 173
33 211 193 168 28 87 79 22 91 114
38 241 60 22 95 198 39 189 169 5
108 112 140 106 202 93 206 18 114 151
161 87 199 164 183 98 165 92 154 243
66 94 155 135 113 234 208 40 181 175
35 29 93 160 138 227 106 71 108 146
96 11 79 132 85 75 90 201 70 57

